<mxfile host="65bd71144e">
    <diagram id="EP-zPvJkDTotvgGtqMaP" name="Page-1">
        <mxGraphModel dx="893" dy="613" grid="1" gridSize="10" guides="1" tooltips="1" connect="1" arrows="1" fold="1" page="1" pageScale="1" pageWidth="850" pageHeight="1100" background="none" math="0" shadow="0">
            <root>
                <mxCell id="0"/>
                <mxCell id="1" parent="0"/>
                <mxCell id="4" style="edgeStyle=none;html=1;entryX=0.667;entryY=0;entryDx=0;entryDy=0;entryPerimeter=0;exitX=0.667;exitY=1;exitDx=0;exitDy=0;exitPerimeter=0;rounded=0;fontFamily=Consolas;strokeColor=#e8c547;" parent="1" source="2" target="3" edge="1">
                    <mxGeometry relative="1" as="geometry">
                        <Array as="points">
                            <mxPoint x="120" y="200"/>
                        </Array>
                    </mxGeometry>
                </mxCell>
                <mxCell id="7" style="edgeStyle=none;html=1;rounded=0;fontFamily=Consolas;strokeColor=#e8c547;" parent="1" source="2" target="6" edge="1">
                    <mxGeometry relative="1" as="geometry"/>
                </mxCell>
                <mxCell id="5" style="edgeStyle=none;html=1;entryX=0.333;entryY=1;entryDx=0;entryDy=0;entryPerimeter=0;exitX=0.333;exitY=0;exitDx=0;exitDy=0;exitPerimeter=0;rounded=0;fontFamily=Consolas;dashed=1;strokeColor=#e8c547;" parent="1" source="3" target="2" edge="1">
                    <mxGeometry relative="1" as="geometry">
                        <Array as="points">
                            <mxPoint x="80" y="200"/>
                        </Array>
                    </mxGeometry>
                </mxCell>
                <mxCell id="3" value="Register" style="rounded=0;whiteSpace=wrap;html=1;fontFamily=Consolas;strokeColor=#e8c547;fillStyle=solid;fillColor=#30323d;fontColor=#ffffff;" parent="1" vertex="1">
                    <mxGeometry x="40" y="220" width="120" height="60" as="geometry"/>
                </mxCell>
                <mxCell id="11" style="edgeStyle=none;html=1;entryX=0;entryY=0.5;entryDx=0;entryDy=0;exitX=0.667;exitY=0;exitDx=0;exitDy=0;rounded=0;exitPerimeter=0;fontFamily=Consolas;strokeColor=#e8c547;" parent="1" source="6" target="9" edge="1">
                    <mxGeometry relative="1" as="geometry">
                        <Array as="points">
                            <mxPoint x="280" y="110"/>
                        </Array>
                    </mxGeometry>
                </mxCell>
                <mxCell id="12" style="edgeStyle=none;html=1;entryX=0;entryY=0.5;entryDx=0;entryDy=0;rounded=0;exitX=0.667;exitY=1;exitDx=0;exitDy=0;exitPerimeter=0;fontFamily=Consolas;strokeColor=#e8c547;" parent="1" source="6" target="10" edge="1">
                    <mxGeometry relative="1" as="geometry">
                        <Array as="points">
                            <mxPoint x="280" y="190"/>
                        </Array>
                    </mxGeometry>
                </mxCell>
                <mxCell id="14" style="edgeStyle=none;rounded=0;html=1;fontFamily=Consolas;strokeColor=#e8c547;" parent="1" source="6" target="8" edge="1">
                    <mxGeometry relative="1" as="geometry"/>
                </mxCell>
                <mxCell id="6" value="Pasaload&lt;br&gt;Dashboard" style="rounded=0;whiteSpace=wrap;html=1;fontFamily=Consolas;strokeColor=#e8c547;fillStyle=solid;fillColor=#30323d;fontColor=#ffffff;" parent="1" vertex="1">
                    <mxGeometry x="200" y="120" width="120" height="60" as="geometry"/>
                </mxCell>
                <mxCell id="32" style="edgeStyle=none;rounded=0;html=1;entryX=0.5;entryY=1;entryDx=0;entryDy=0;dashed=1;fontFamily=Consolas;fontSize=8;strokeColor=#e8c547;" parent="1" source="8" target="30" edge="1">
                    <mxGeometry relative="1" as="geometry">
                        <Array as="points">
                            <mxPoint x="420" y="250"/>
                        </Array>
                    </mxGeometry>
                </mxCell>
                <mxCell id="8" value="Pasaload&lt;br&gt;Function" style="rounded=0;whiteSpace=wrap;html=1;fontFamily=Consolas;strokeColor=#e8c547;fillStyle=solid;fillColor=#30323d;fontColor=#ffffff;" parent="1" vertex="1">
                    <mxGeometry x="200" y="220" width="120" height="60" as="geometry"/>
                </mxCell>
                <mxCell id="15" style="edgeStyle=none;rounded=0;html=1;exitX=0;exitY=0.833;exitDx=0;exitDy=0;exitPerimeter=0;fontFamily=Consolas;dashed=1;strokeColor=#e8c547;" parent="1" source="9" edge="1">
                    <mxGeometry relative="1" as="geometry">
                        <mxPoint x="320" y="130" as="targetPoint"/>
                    </mxGeometry>
                </mxCell>
                <mxCell id="9" value="Add Load" style="rounded=0;whiteSpace=wrap;html=1;fontFamily=Consolas;strokeColor=#e8c547;fillStyle=solid;fillColor=#30323d;fontColor=#ffffff;" parent="1" vertex="1">
                    <mxGeometry x="360" y="80" width="120" height="60" as="geometry"/>
                </mxCell>
                <mxCell id="10" value="Logout" style="rounded=0;whiteSpace=wrap;html=1;fontFamily=Consolas;strokeColor=#e8c547;fillStyle=solid;fillColor=#30323d;fontColor=#ffffff;" parent="1" vertex="1">
                    <mxGeometry x="360" y="160" width="120" height="60" as="geometry"/>
                </mxCell>
                <mxCell id="18" value="" style="group;fontFamily=Consolas;strokeColor=none;" parent="1" vertex="1" connectable="0">
                    <mxGeometry x="40" y="120" width="120" height="60" as="geometry"/>
                </mxCell>
                <mxCell id="2" value="Login" style="rounded=0;whiteSpace=wrap;html=1;fontFamily=Consolas;strokeColor=#e8c547;fillStyle=solid;fillColor=#30323d;fontColor=#ffffff;" parent="18" vertex="1">
                    <mxGeometry width="120" height="60" as="geometry"/>
                </mxCell>
                <mxCell id="17" value="1.0" style="text;html=1;strokeColor=none;fillColor=none;align=center;verticalAlign=middle;whiteSpace=wrap;rounded=0;fontFamily=Consolas;fontSize=8;fontColor=#ffffff;" parent="18" vertex="1">
                    <mxGeometry x="30" y="50" width="60" height="10" as="geometry"/>
                </mxCell>
                <mxCell id="23" value="2.0" style="text;html=1;strokeColor=none;fillColor=none;align=center;verticalAlign=middle;whiteSpace=wrap;rounded=0;fontFamily=Consolas;fontSize=8;fontColor=#ffffff;" parent="1" vertex="1">
                    <mxGeometry x="70" y="270" width="60" height="10" as="geometry"/>
                </mxCell>
                <mxCell id="28" value="3.0" style="text;html=1;strokeColor=none;fillColor=none;align=center;verticalAlign=middle;whiteSpace=wrap;rounded=0;fontFamily=Consolas;fontSize=8;fontColor=#ffffff;" parent="1" vertex="1">
                    <mxGeometry x="230" y="170" width="60" height="10" as="geometry"/>
                </mxCell>
                <mxCell id="29" value="5.0" style="text;html=1;strokeColor=none;fillColor=none;align=center;verticalAlign=middle;whiteSpace=wrap;rounded=0;fontFamily=Consolas;fontSize=8;fontColor=#ffffff;" parent="1" vertex="1">
                    <mxGeometry x="230" y="270" width="60" height="10" as="geometry"/>
                </mxCell>
                <mxCell id="30" value="6.0" style="text;html=1;strokeColor=none;fillColor=none;align=center;verticalAlign=middle;whiteSpace=wrap;rounded=0;fontFamily=Consolas;fontSize=8;fontColor=#ffffff;" parent="1" vertex="1">
                    <mxGeometry x="390" y="210" width="60" height="10" as="geometry"/>
                </mxCell>
                <mxCell id="31" value="4.0" style="text;html=1;strokeColor=none;fillColor=none;align=center;verticalAlign=middle;whiteSpace=wrap;rounded=0;fontFamily=Consolas;fontSize=8;fontColor=#ffffff;" parent="1" vertex="1">
                    <mxGeometry x="390" y="130" width="60" height="10" as="geometry"/>
                </mxCell>
            </root>
        </mxGraphModel>
    </diagram>
</mxfile>